<svg width="100" height="100" viewBox="0 0 100 100" fill="none" xmlns="http://www.w3.org/2000/svg">
<rect width="100" height="100" fill="#E11B22"/>
<path d="M18.1791 88.6479V24.1972H10V11.3521H32.5166V24.1972H24.3375V88.6479H18.1791Z" fill="white"/>
<path d="M36.172 88.6479V11.3521H41.6087L51.8085 53.9437C52.001 54.5446 52.2095 55.446 52.434 56.6479C52.6585 57.7746 52.851 58.8263 53.0113 59.8028C53.2038 60.7042 53.3 61.1549 53.3 61.1549L53.4444 60.8169C53.4444 60.8169 53.4444 60.3662 53.4444 59.4648C53.4444 58.5634 53.4283 57.5869 53.3962 56.5352C53.3962 55.4836 53.3962 54.77 53.3962 54.3944V11.3521H58.8811V88.6479H53.3962L43.1964 46.0563C43.0681 45.5305 42.8757 44.7042 42.6191 43.5775C42.3945 42.3756 42.1861 41.2864 41.9936 40.3099C41.8012 39.3333 41.7049 38.8451 41.7049 38.8451L41.5125 39.1831C41.5125 39.1831 41.5125 39.5962 41.5125 40.4225C41.5446 41.1737 41.5606 42.0751 41.5606 43.1268C41.5927 44.1033 41.6087 44.9296 41.6087 45.6056V88.6479H36.172Z" fill="white"/>
<path d="M76.1436 90C72.1022 90 68.9588 86.77 66.7136 80.3099C64.5004 73.8498 63.3938 63.7465 63.3938 50C63.3938 36.3286 64.6127 26.2629 67.0504 19.8028C69.4881 13.2676 72.9361 10 77.3945 10C79.6077 10 81.6765 11.0892 83.601 13.2676C85.5255 15.446 87.0651 18.6385 88.2198 22.8451C89.4066 27.0516 90 32.2347 90 38.3944H83.6973C83.6973 33.1361 83.0558 29.1549 81.7728 26.4507C80.5219 23.7465 78.9983 22.3944 77.2021 22.3944C74.6361 22.3944 72.7437 24.6103 71.5248 29.0422C70.3381 33.3991 69.7447 39.446 69.7447 47.1831V52.8169C69.7447 60.7042 70.3541 66.8263 71.5729 71.1831C72.7918 75.4648 74.6842 77.6056 77.2502 77.6056C79.1426 77.6056 80.6822 75.9155 81.869 72.5352C83.0878 69.1549 83.6973 64.6479 83.6973 59.0141V53.6056L86.2953 59.0141H76.288V46.6197H90V88.6479H86.0067L84.9482 80.0845C83.8897 83.3146 82.5907 85.7934 81.0511 87.5211C79.5115 89.1737 77.8757 90 76.1436 90Z" fill="white"/>
</svg>
