<svg width="100" height="100" viewBox="0 0 100 100" fill="none" xmlns="http://www.w3.org/2000/svg">
<rect width="100" height="100" fill="#E11B22"/>
<path d="M87.6307 47.2158V25.917C87.6307 12.8716 72.5412 13.6182 69.9772 17.9316C68.1305 7.72486 52.1623 7.51552 49.3063 16.4582C44.5902 8.59686 29.5407 10.3075 29.5407 23.5049C25.3207 17.6876 10.9978 17.6142 10.9978 30.5183C10.9978 30.5183 11.1058 35.5143 10.9952 37.1744C10.5032 44.5611 9.01781 51.9824 11.0098 66.7879C11.9032 73.4306 14.7325 78.5733 19.4153 82.0693C27.7554 88.296 39.1768 87.2533 41.4435 86.972C46.2568 88.9645 51.4143 89.9933 56.6237 90C62.2624 90 67.7905 88.7707 72.6746 86.3213C80.9173 82.188 86.6574 74.9492 88.8374 65.9359C90.8854 57.4758 90.0681 51.6411 87.6307 47.2158ZM69.9758 20.9209C72.2812 17.1929 83.1893 15.3436 83.1893 27.9263V41.8744C80.2973 39.0504 71.1025 33.3477 69.9758 32.6317V20.9209ZM50.757 21.7223C50.757 10.6569 66.2678 11.5715 66.2678 23.3636V30.6983C63.0478 29.4396 60.4984 30.149 57.4397 31.0103C55.6037 31.529 53.4837 32.1197 50.757 32.4103V21.7223ZM31.7287 22.6383C31.7287 12.1129 46.6276 13.4676 46.6276 25.3836V32.5797C42.0915 31.8437 38.5182 34.7303 37.4168 38.437C36.8904 40.2437 36.8983 42.1641 37.4395 43.9664C34.3941 42.8837 31.7301 40.353 31.7301 36.909L31.7287 22.6383ZM13.1699 30.4823C13.1699 20.8103 28.3167 20.7036 28.3167 33.265V43.3851C28.3167 52.5998 13.1699 54.2611 13.1699 43.4677V30.4823ZM79.6386 74.0906C69.0492 86.404 54.817 86.5187 40.6902 82.616C40.6902 82.616 26.0647 85.952 18.5513 78.3546C12.9939 72.7346 11.1725 61.2505 12.4752 49.6478C14.4992 52.7078 18.2579 54.5078 21.5646 54.5078C24.6087 54.5078 27.4287 53.2638 29.5074 51.0064C31.1514 49.2171 32.2367 46.8624 32.7394 44.0957C34.4367 45.7609 36.653 46.7947 39.0195 47.0251C41.5489 51.0238 46.8929 51.9891 49.3129 52.3958C44.2462 54.8638 39.8408 60.1118 42.2662 69.0425C42.0782 54.8078 57.4037 51.1478 59.4224 51.9998C61.7811 52.9971 64.6638 57.5038 65.3505 59.8652C65.6185 60.7838 65.6878 63.6732 65.6878 63.6732C65.6878 63.6732 66.4878 60.6772 66.3225 59.6812C65.8198 56.6278 61.7291 50.9504 58.8491 49.8078C56.9797 49.0664 52.0623 50.7758 50.8396 50.5838C39.5528 48.8224 38.2742 41.5224 39.0542 38.8997C39.8008 36.3917 42.6489 34.4143 44.6729 34.5397C51.0356 34.9623 54.7183 33.945 57.9037 33.0463C61.5891 32.005 63.8958 31.2223 67.4745 33.585C69.0958 34.6557 82.9547 43.6424 85.3414 48.5838C89.2867 56.7505 84.8694 68.0145 79.6386 74.0906Z" fill="white"/>
</svg>
