<svg width="100" height="100" viewBox="0 0 100 100" fill="none" xmlns="http://www.w3.org/2000/svg">
<g clip-path="url(#clip0_12282_57296)">
<path d="M97.0384 46.5197V19.8962C97.0384 3.58944 78.1765 4.52278 74.9715 9.91448C72.6631 -2.84393 52.7029 -3.1056 49.1328 8.0728C43.2378 -1.75392 24.4259 0.384424 24.4259 16.8812C19.1508 9.60948 1.2473 9.51781 1.2473 25.6479C1.2473 25.6479 1.3823 31.8929 1.24396 33.9679C0.628955 43.2013 -1.22773 52.4781 1.2623 70.9848C2.37898 79.2882 5.91568 85.7166 11.7691 90.0866C22.1942 97.87 36.471 96.5666 39.3044 96.215C45.321 98.7056 51.7679 99.9916 58.2796 100C65.328 100 72.2381 98.4633 78.3432 95.4016C88.6466 90.2349 95.8217 81.1866 98.5468 69.9198C101.107 59.3448 100.085 52.0514 97.0384 46.5197ZM74.9698 13.6512C77.8515 8.99114 91.4867 6.67946 91.4867 22.4079V39.843C87.8716 36.313 76.3782 29.1846 74.9698 28.2896V13.6512ZM50.9462 14.6528C50.9462 0.821094 70.3348 1.96443 70.3348 16.7045V25.8729C66.3097 24.2996 63.123 25.1862 59.2996 26.2629C57.0046 26.9112 54.3546 27.6496 50.9462 28.0129V14.6528ZM27.1609 15.7978C27.1609 2.6411 45.7845 4.33444 45.7845 19.2295V28.2246C40.1144 27.3046 35.6477 30.9129 34.271 35.5463C33.613 37.8046 33.6229 40.2051 34.2993 42.458C30.4926 41.1047 27.1626 37.9413 27.1626 33.6363L27.1609 15.7978ZM3.96233 25.6029C3.96233 13.5128 22.8959 13.3795 22.8959 29.0813V41.7313C22.8959 53.2497 3.96233 55.3264 3.96233 41.8347V25.6029ZM87.0483 80.1132C73.8115 95.505 56.0213 95.6483 38.3627 90.77C38.3627 90.77 20.0808 94.94 10.6891 85.4432C3.74232 78.4182 1.46563 64.0631 3.09398 49.5597C5.62401 53.3847 10.3224 55.6347 14.4558 55.6347C18.2608 55.6347 21.7859 54.0797 24.3842 51.258C26.4393 49.0214 27.7959 46.078 28.4243 42.6197C30.5458 44.7012 33.3162 45.9934 36.2744 46.2814C39.4361 51.2797 46.1162 52.4864 49.1412 52.9947C42.8078 56.0797 37.301 62.6398 40.3327 73.8032C40.0977 56.0097 59.2546 51.4347 61.778 52.4997C64.7264 53.7464 68.3297 59.3798 69.1881 62.3314C69.5231 63.4798 69.6098 67.0915 69.6098 67.0915C69.6098 67.0915 70.6098 63.3465 70.4031 62.1014C69.7748 58.2848 64.6614 51.188 61.0613 49.7597C58.7246 48.833 52.5779 50.9697 51.0495 50.7297C36.941 48.528 35.3427 39.403 36.3177 36.1246C37.251 32.9896 40.8111 30.5179 43.3411 30.6746C51.2945 31.2029 55.8979 29.9313 59.8796 28.8079C64.4864 27.5062 67.3697 26.5279 71.8431 29.4813C73.8698 30.8196 91.1933 42.053 94.1767 48.2297C99.1084 58.4381 93.5867 72.5182 87.0483 80.1132Z" fill="#E11B22"/>
</g>
<defs>
<clipPath id="clip0_12282_57296">
<rect width="100" height="100" fill="white"/>
</clipPath>
</defs>
</svg>
