<svg width="100" height="100" viewBox="0 0 100 100" fill="none" xmlns="http://www.w3.org/2000/svg">
<rect width="100" height="100" fill="#E11B22"/>
<path d="M10 85.7493V14.2507H18.1507V85.7493H10Z" fill="white"/>
<path d="M21.942 85.7493V14.2507H29.1375L42.6371 53.6479C42.8918 54.2038 43.1677 55.0376 43.4649 56.1493C43.762 57.1915 44.0167 58.1643 44.229 59.0676C44.4837 59.9014 44.6111 60.3183 44.6111 60.3183L44.8021 60.0056C44.8021 60.0056 44.8021 59.5887 44.8021 58.7549C44.8021 57.9211 44.7809 57.0178 44.7384 56.0451C44.7384 55.0723 44.7384 54.4122 44.7384 54.0648V14.2507H51.9976V85.7493H44.7384L31.2388 46.3521C31.069 45.8657 30.8143 45.1014 30.4747 44.0592C30.1776 42.9474 29.9016 41.9399 29.6469 41.0366C29.3922 40.1333 29.2649 39.6817 29.2649 39.6817L29.0101 39.9944C29.0101 39.9944 29.0101 40.3765 29.0101 41.1408C29.0526 41.8357 29.0738 42.6695 29.0738 43.6423C29.1163 44.5455 29.1375 45.3099 29.1375 45.9352V85.7493H21.942Z" fill="white"/>
<path d="M71.661 87C66.3121 87 62.1518 84.0122 59.1802 78.0366C56.2511 72.061 54.7865 62.7155 54.7865 50C54.7865 37.354 56.3996 28.0432 59.626 22.0676C62.8523 16.0225 67.4158 13 73.3166 13C76.2457 13 78.9838 14.0075 81.5309 16.0225C84.078 18.0376 86.1157 20.9906 87.6439 24.8817C89.2146 28.7728 90 33.5671 90 39.2648H81.6583C81.6583 34.4009 80.8093 30.7183 79.1112 28.2169C77.4556 25.7155 75.4391 24.4648 73.0619 24.4648C69.6657 24.4648 67.1611 26.5146 65.5479 30.6141C63.9772 34.6441 63.1919 40.2376 63.1919 47.3944V52.6056C63.1919 59.9014 63.9985 65.5643 65.6116 69.5944C67.2248 73.5549 69.7294 75.5352 73.1255 75.5352C75.6302 75.5352 77.6678 73.9718 79.2385 70.8451C80.8517 67.7183 81.6583 63.5493 81.6583 58.338V53.3352L85.0969 58.338H71.852V46.8732H90V85.7493H84.7148L83.3139 77.8282C81.913 80.816 80.1937 83.1089 78.156 84.707C76.1184 86.2357 73.9533 87 71.661 87Z" fill="white"/>
</svg>
