<?xml version="1.0" encoding="UTF-8"?>
<svg id="Layer_1" xmlns="http://www.w3.org/2000/svg" version="1.1" viewBox="0 0 1024 1024" width="1024" height="1024">
  <!-- Generator: Adobe Illustrator 30.3.0, SVG Export Plug-In . SVG Version: 2.1.3 Build 182)  -->
  <path d="M1020.667,512.792c0,37.627-33.852,70.943-41.854,106.148-8.263,36.351,7.585,81.015-8.238,113.811-16.083,33.337-61.049,48.706-83.914,77.341-22.977,28.775-28.034,75.995-56.809,98.972-28.635,22.865-75.758,17.367-109.096,33.45-32.796,15.822-57.775,56.248-94.126,64.511-35.205,8.002-75.17-17.399-112.797-17.399s-77.592,25.402-112.797,17.399c-36.351-8.263-61.33-48.689-94.126-64.511-33.337-16.083-80.461-10.585-109.096-33.451-28.775-22.977-33.832-70.197-56.809-98.972-22.865-28.635-67.83-44.004-83.914-77.341-15.822-32.796.025-77.459-8.237-113.811-8.002-35.205-41.854-68.521-41.854-106.148s33.852-70.943,41.854-106.148c8.263-36.351-7.585-81.015,8.238-113.811,16.083-33.337,61.049-48.706,83.914-77.341,22.977-28.775,28.034-75.995,56.809-98.972,28.635-22.865,75.758-17.367,109.096-33.45,32.796-15.822,57.775-56.248,94.126-64.511,35.205-8.002,75.17,17.399,112.797,17.399s77.592-25.402,112.797-17.399c36.351,8.263,61.33,48.689,94.126,64.511,33.337,16.083,80.461,10.585,109.096,33.451s33.832,70.197,56.809,98.972,67.83,44.004,83.914,77.341c15.822,32.796-.025,77.459,8.237,113.811,8.002,35.205,41.854,68.521,41.854,106.148Z" fill="#222"/>
  <path d="M513.834,88.476c57.288,0,112.855,11.217,165.159,33.34,50.526,21.371,95.905,51.967,134.878,90.939s69.569,84.352,90.939,134.877c22.123,52.304,33.34,107.872,33.34,165.159s-11.217,112.855-33.34,165.159c-21.371,50.526-51.967,95.905-90.939,134.878s-84.352,69.569-134.878,90.939c-52.304,22.123-107.872,33.34-165.159,33.34s-112.855-11.217-165.159-33.34c-50.526-21.371-95.905-51.967-134.878-90.939s-69.569-84.352-90.939-134.878c-22.123-52.304-33.34-107.872-33.34-165.159s11.217-112.855,33.34-165.159c21.371-50.526,51.967-95.905,90.939-134.877s84.352-69.569,134.878-90.939c52.304-22.123,107.872-33.34,165.159-33.34M513.834,76.476c-240.971,0-436.316,195.345-436.316,436.316s195.345,436.316,436.316,436.316,436.316-195.345,436.316-436.316S754.804,76.476,513.834,76.476h0Z" fill="#fff"/>
  <path d="M513.834,105.481c54.989,0,108.33,10.768,158.542,32.006,48.502,20.514,92.062,49.884,129.47,87.292,37.408,37.408,66.778,80.968,87.292,129.47,21.238,50.212,32.006,103.553,32.006,158.542s-10.768,108.33-32.006,158.542c-20.514,48.502-49.884,92.062-87.292,129.47s-80.968,66.778-129.47,87.292c-50.212,21.238-103.553,32.006-158.542,32.006s-108.33-10.768-158.542-32.006c-48.502-20.514-92.062-49.884-129.47-87.292s-66.778-80.968-87.292-129.47c-21.238-50.212-32.006-103.553-32.006-158.542s10.768-108.33,32.006-158.542c20.514-48.502,49.884-92.062,87.292-129.47,37.408-37.408,80.968-66.778,129.47-87.292,50.212-21.238,103.553-32.006,158.542-32.006M513.834,100.481c-227.713,0-412.311,184.598-412.311,412.311s184.598,412.311,412.311,412.311,412.311-184.598,412.311-412.311S741.547,100.481,513.834,100.481h0Z" fill="#fff"/>
  <path d="M594.295,587.964l-4.018-2.445c-3.132,7.493-7.508,11.068-7.508,11.068-10.356,9.016-20.084,8.449-36.011,5.621-.777-.139-1.504-.284-2.211-.438.652-1.021,1.304-2.151,1.942-3.396,2.121-4.137,3.769-9.295,4.202-13.871.513-5.397.612-9.957.612-9.957l1.001-36.534.274-44.834.01-66.894,1.22-.274c26.711-7.04,40.492-40.303,40.492-40.303l-4.018-2.445c-3.132,7.493-7.508,11.068-7.508,11.068-10.356,9.017-20.084,8.449-36.011,5.621-4.605-.817-7.886-1.907-11.61-3.042-5.193-1.588-8.13-2.579-8.13-2.579-17.112-5.621-24.764-6.363-24.764-6.363-8.673-1.12-13.836-1.13-16.813-.712-2.589.363-3.824.712-3.824.712-12.885,3.391-22.638,11.297-29.987,19.213-13.303,14.334-18.267,30.589-18.267,30.589l3.779,2.295c1.055-2.44,2.151-4.63,3.291-6.662,2.932-5.243,6.208-9.285,9.191-12.029,4.441-4.083,8.11-5.506,8.11-5.506,2.181-1.135,4.929-1.877,8.026-2.196,6.886-.712,17.988.762,26.975,2.599,4.814.986,9.012,2.091,11.65,2.838l-42.145,31.316,3.53,3.719,5.417-3.948s3.465,1.484,3.181,30.694l-.115,82.423-1.319.901-10.714,7.802,3.54,3.729,4.541-3.306,19.81,16.813s-.025.005-.03.01c-1.937-.01-3.465.085-4.64.249-2.589.363-3.824.712-3.824.712-12.885,3.391-22.638,11.297-29.987,19.213-13.303,14.334-18.267,30.589-18.267,30.589l3.779,2.295c1.055-2.44,2.151-4.63,3.291-6.662,2.932-5.243,6.208-9.285,9.191-12.029,4.441-4.083,8.11-5.506,8.11-5.506,2.181-1.135,4.929-1.877,8.026-2.196,6.886-.712,17.988.762,26.975,2.599,8.16,1.673,14.573,3.699,14.573,3.699,21.842,6.472,34.338,11.78,53.133,3.664,21.862-9.44,33.85-37.928,33.85-37.928h0ZM490.15,589.258l23.699-19.347-5.412-4.879c-4.939-4.939-4.76-11.242-4.76-11.242v-127.989l6.433-4.944,3.122.991s2.848.782,6.816,1.807v151.901c.149,10.401-.752,16.051-1.289,18.466-11.332-3.296-16.505-3.804-16.505-3.804-5.073-.657-8.912-.926-11.849-.956-.149-.005-.254-.005-.254-.005h0Z" fill="#fff"/>
  <g>
    <polyline points="653.801 528.443 669.451 512.792 653.801 497.142" fill="none" stroke="#fff" stroke-linecap="round" stroke-linejoin="round" stroke-width="5"/>
    <polyline points="634.259 528.443 618.609 512.792 634.259 497.142" fill="none" stroke="#fff" stroke-linecap="round" stroke-linejoin="round" stroke-width="5"/>
  </g>
  <g>
    <line x1="395.498" y1="497.142" x2="388.053" y2="504.587" fill="none" stroke="#fff" stroke-linecap="round" stroke-miterlimit="10" stroke-width="5"/>
    <line x1="371.642" y1="520.998" x2="364.198" y2="528.443" fill="none" stroke="#fff" stroke-linecap="round" stroke-miterlimit="10" stroke-width="5"/>
    <line x1="395.498" y1="528.443" x2="388.053" y2="520.998" fill="none" stroke="#fff" stroke-linecap="round" stroke-miterlimit="10" stroke-width="5"/>
    <line x1="371.642" y1="504.587" x2="364.198" y2="497.142" fill="none" stroke="#fff" stroke-linecap="round" stroke-miterlimit="10" stroke-width="5"/>
  </g>
  <g>
    <circle cx="512" cy="512.792" r="310.478" fill="none"/>
    <path d="M227.324,731.585l-9.075-13.946,34.075-50.424-46.99,30.576-9.006-13.84,79.498-51.729,9.075,13.947-34.076,50.424,46.991-30.576,9.005,13.84-79.497,51.728Z" fill="#fff"/>
    <path d="M301.037,729.305l23.411,21.816-11.258,12.08-23.41-21.816-15.358,16.481,23.41,21.816-11.345,12.174-35.49-33.074,64.663-69.39,35.491,33.074-11.345,12.173-23.411-21.815-15.358,16.48Z" fill="#fff"/>
    <path d="M382.071,847.487l-16.045-7.691,14.807-52.807-31.891,44.618-16.045-7.69,24.953-93.227,15.006,7.193-16.488,58.389,34.611-49.702,15.007,7.192-17.065,58.112,35.188-49.426,15.006,7.192-57.044,77.846Z" fill="#fff"/>
    <path d="M460.008,850.111c6.327.965,11.462-2.137,12.292-7.578,1.255-8.225-12.075-13.366-21.651-21.042-6.829-5.314-12.68-14.494-10.942-25.883,2.374-15.564,16.784-25.149,32.096-22.814,15.564,2.375,26.289,16.959,23.914,32.523l-16.323-2.49c.604-6.511-3.646-12.598-10.1-13.582-6.454-.984-11.239,1.522-12.204,7.85-1.081,7.086,10.128,12.551,19.08,19.226,7.764,5.976,15.59,14.938,13.641,27.719-2.336,15.312-16.746,24.896-32.311,22.522-15.312-2.336-26.035-16.92-23.681-32.358l16.324,2.49c-.712,6.365,3.539,12.452,9.865,13.418Z" fill="#fff"/>
    <path d="M605.881,829.996c3.11,15.303-6.882,30.395-22.31,33.531-15.303,3.11-30.395-6.883-33.506-22.185l-7.547-37.127c-3.136-15.427,6.856-30.52,22.159-33.63,15.428-3.137,30.52,6.856,33.656,22.284l-16.181,3.289c-1.426-6.371-7.864-10.418-14.136-9.143-6.396,1.3-10.543,7.89-9.319,13.91l7.548,37.127c1.4,6.246,7.864,10.417,14.011,9.168,6.496-1.451,10.719-7.665,9.444-13.937l-1.913-9.406-11.79,2.396-3.314-16.306,27.971-5.686,5.227,25.712Z" fill="#fff"/>
    <path d="M682.025,797.246c6.787,13.922.891,31.035-13.261,37.935-13.921,6.787-31.035.892-37.822-13.03l-29.392-60.286,14.841-7.236,29.393,60.287c3.424,6.731,10.107,8.173,15.745,5.425,5.812-2.977,8.402-10.221,5.654-15.857l-29.393-60.287,14.842-7.236,29.393,60.287Z" fill="#fff"/>
    <path d="M662.579,728.674l13.332-9.958,56.76,75.993-13.332,9.958-56.76-75.993Z" fill="#fff"/>
    <path d="M789.645,740.177l-33.503,35.26-68.756-65.33,11.461-12.062,56.694,53.868,22.041-23.197,12.062,11.462Z" fill="#fff"/>
    <path d="M736.19,650.485c8.312-13.37,25.94-17.482,39.312-9.17l32.176,20.004c13.262,8.245,17.374,25.873,9.062,39.244l-14.936,24.023-80.549-50.078,14.936-24.023ZM802.607,691.777c3.339-5.611,1.787-13.057-3.647-16.436l-32.177-20.004c-5.72-3.405-13.015-1.61-16.462,3.934l-6.149,9.892,52.286,32.507,6.149-9.893Z" fill="#fff"/>
  </g>
  <g>
    <circle cx="512" cy="512.792" r="307.071" fill="none"/>
    <path d="M250.854,272.91l11.543-11.985,68.314,65.804-11.546,11.983-68.312-65.802Z" fill="#fff"/>
    <path d="M387.951,282.87l-13.688,9.461-51.353-32.657,31.873,46.119-13.583,9.388-53.923-78.023,13.688-9.46,51.354,32.656-31.873-46.118,13.582-9.388,53.923,78.022Z" fill="#fff"/>
    <path d="M440.662,232.825c2.751,7.58,1.991,15.616-1.434,22.307,5.423,2.935,9.925,7.835,12.195,14.091l-15.278,5.547c-1.955-5.009-6.021-7.209-10.659-6.479l-2.001.862c-14.558,5.285-30.957-2.377-36.242-16.936l-13.321-36.694c-5.416-14.918,2.247-31.317,16.805-36.603,14.798-5.372,31.197,2.291,36.613,17.21l13.322,36.694ZM402.764,246.583c2.697,7.055,9.192,9.19,15.087,7.051,6.093-2.348,9.431-9.279,7.291-15.175l-13.322-36.694c-2.348-6.092-9.399-9.387-15.414-7.203-5.973,2.304-9.146,9.312-6.963,15.327l13.321,36.694Z" fill="#fff"/>
    <path d="M510.814,223.979c1.565,15.408-9.875,29.436-25.537,31.027-15.407,1.565-29.436-9.874-31.001-25.282l-6.781-66.726,16.427-1.669,6.78,66.725c.891,7.501,6.666,11.159,12.906,10.525,6.48-.787,11.413-6.692,10.779-12.932l-6.78-66.726,16.426-1.669,6.781,66.726Z" fill="#fff"/>
    <path d="M534.665,158.918l16.578,1.439-8.204,94.494-16.578-1.439,8.204-94.494Z" fill="#fff"/>
    <path d="M581.91,226.877l-9.349,33.141-16.016-4.519,25.755-91.288,27.227,7.682c15.275,4.31,24.119,20.105,19.844,35.258l-.974,3.45c-2.988,10.595-11.755,18.097-22,19.993l5.587,40.546-18.357-5.179-5.187-37.241-6.53-1.843ZM586.395,210.985l11.21,3.163c6.318,1.649,13.074-2.03,14.779-8.066l.973-3.45c1.684-6.44-2.065-12.951-8.348-14.725l-11.212-3.162-7.402,26.24Z" fill="#fff"/>
    <path d="M662.629,235.614l27.767,15.904-8.207,14.327-27.766-15.904-11.196,19.547,27.767,15.904-8.271,14.438-42.094-24.108,47.14-82.3,42.093,24.111-8.27,14.438-27.767-15.903-11.196,19.547Z" fill="#fff"/>
    <path d="M709.397,294.548l-24.004,24.686-11.931-11.602,66.124-68,20.281,19.722c11.38,11.064,11.633,29.164.656,40.453l-2.498,2.569c-7.675,7.892-18.956,10.313-28.867,7.103l-14.4,38.311-13.674-13.297,13.176-35.216-4.863-4.729ZM720.909,282.709l8.351,8.121c4.77,4.459,12.464,4.441,16.837-.055l2.498-2.57c4.548-4.86,4.353-12.372-.328-16.922l-8.351-8.121-19.007,19.547Z" fill="#fff"/>
  </g>
  <path d="M513.834,305.476c27.99,0,55.14,5.481,80.695,16.29,24.686,10.442,46.858,25.391,65.899,44.432,19.041,19.041,33.99,41.213,44.432,65.899,10.809,25.556,16.29,52.706,16.29,80.695s-5.481,55.14-16.29,80.695c-10.442,24.686-25.391,46.858-44.432,65.899-19.041,19.041-41.213,33.99-65.899,44.432-25.556,10.809-52.706,16.29-80.695,16.29s-55.14-5.481-80.695-16.29c-24.686-10.442-46.858-25.391-65.899-44.432-19.041-19.041-33.99-41.213-44.432-65.899-10.809-25.556-16.29-52.706-16.29-80.695s5.481-55.14,16.29-80.695c10.442-24.686,25.391-46.858,44.432-65.899,19.041-19.041,41.213-33.99,65.899-44.432,25.556-10.809,52.706-16.29,80.695-16.29M513.834,300.476c-117.259,0-212.316,95.057-212.316,212.316s95.057,212.316,212.316,212.316,212.316-95.057,212.316-212.316-95.057-212.316-212.316-212.316h0Z" fill="#fff"/>
  <g>
    <path d="M169.434,493.506v47.66h-10.141v-47.66h-12.248v-10.139h34.635v10.139h-12.246Z" fill="#fff"/>
    <path d="M224.5,541.166h-10.139l-14.432-34.164v34.164h-10.062v-57.799h10.141l14.43,34.164v-34.164h10.062v57.799Z" fill="#fff"/>
    <path d="M269.35,523.85c0,9.516-7.801,17.316-17.395,17.316-9.516,0-17.316-7.801-17.316-17.316v-23.088c0-9.596,7.801-17.395,17.316-17.395,9.594,0,17.395,7.799,17.395,17.395h-10.062c-.078-3.979-3.432-7.178-7.332-7.178-3.979,0-7.254,3.434-7.254,7.178v23.088c.078,3.9,3.432,7.176,7.254,7.176,4.057-.078,7.332-3.275,7.332-7.176v-5.85h-7.332v-10.141h17.395v15.99Z" fill="#fff"/>
  </g>
  <g>
    <path d="M781.48,500.449c-.078-3.979-3.354-7.332-7.254-7.332-3.9.078-7.177,3.432-7.177,7.332v23.791c.078,4.602,3.354,7.176,7.177,7.176,3.978-.078,7.254-3.354,7.254-7.176v-5.852h10.141v5.852c0,9.438-7.801,17.238-17.395,17.238-9.438,0-17.239-7.801-17.239-17.238v-23.791c0-9.672,7.801-17.473,17.239-17.473,9.594,0,17.395,7.801,17.395,17.473v5.693h-10.141v-5.693Z" fill="#fff"/>
    <path d="M842.165,541.166h-10.843l-5.771-32.916-5.772,32.916h-10.843l-10.842-57.799h10.141l6.317,36.426,5.929-36.426h10.141l5.928,36.426,6.318-36.426h10.141l-10.843,57.799Z" fill="#fff"/>
    <path d="M865.719,526.736l-3.51,14.43h-10.141l14.118-57.799h13.729l14.118,57.799h-10.14l-3.511-14.43h-14.664ZM873.051,496.783l-4.992,20.592h10.062l-5.07-20.592Z" fill="#fff"/>
  </g>
</svg>