<svg width="440" height="430" viewBox="0 0 440 430" fill="none" xmlns="http://www.w3.org/2000/svg">
<path d="M440 215C440 231.317 425.306 245.765 421.833 261.031C418.246 276.795 425.125 296.163 418.257 310.385C411.276 324.842 391.757 331.506 381.832 343.924C371.907 356.341 369.664 376.879 357.173 386.843C344.744 396.758 324.289 394.374 309.818 401.349C295.583 408.21 284.74 425.74 268.961 429.324C253.68 432.794 236.332 421.779 220 421.779C203.667 421.779 186.32 432.794 171.038 429.324C155.259 425.74 144.417 408.21 130.181 401.349C115.711 394.374 95.2557 396.758 82.8262 386.843C70.3966 376.927 68.1408 356.402 58.1672 343.924C48.1937 331.445 28.7244 324.841 21.7429 310.385C14.8751 296.163 21.7537 276.795 18.1675 261.031C14.6941 245.764 0 231.317 0 215C0 198.683 14.6941 184.235 18.1675 168.969C21.7542 153.205 14.8751 133.837 21.7433 119.615C28.7244 105.158 48.2427 98.4936 58.1677 86.076C68.1412 73.5978 70.3363 53.1209 82.8266 43.157C95.2561 33.2416 115.711 35.6258 130.182 28.6514C144.417 21.7902 155.26 4.25955 171.039 0.676307C186.32 -2.79375 203.668 8.22136 220 8.22136C236.333 8.22136 253.68 -2.79418 268.962 0.676307C284.741 4.25955 295.583 21.7902 309.819 28.6514C324.289 35.6258 344.744 33.2416 357.174 43.1574C369.664 53.1213 371.859 73.5982 381.833 86.0765C391.806 98.5547 411.276 105.159 418.257 119.615C425.125 133.837 418.246 153.205 421.833 168.969C425.306 184.236 440 198.683 440 215Z" fill="#222222"/>
<path d="M220 30.9962C244.867 30.9962 268.987 35.8604 291.69 45.454C313.622 54.7215 333.32 67.9894 350.237 84.8896C367.153 101.79 380.434 121.469 389.71 143.379C399.313 166.06 404.182 190.157 404.182 215C404.182 239.842 399.313 263.939 389.71 286.621C380.434 308.531 367.153 328.21 350.237 345.11C333.32 362.011 313.622 375.279 291.69 384.546C268.987 394.14 244.867 399.004 220 399.004C195.134 399.004 171.014 394.14 148.31 384.546C126.378 375.279 106.681 362.011 89.7639 345.11C72.847 328.21 59.5662 308.531 50.2902 286.621C40.6873 263.939 35.8184 239.842 35.8184 215C35.8184 190.157 40.6873 166.06 50.2902 143.379C59.5667 121.468 72.8474 101.79 89.7639 84.8896C106.68 67.9894 126.378 54.7211 148.31 45.454C171.014 35.8604 195.134 30.9962 220 30.9962ZM220 25.7924C115.403 25.7924 30.6096 110.503 30.6096 215C30.6096 319.497 115.403 404.208 220 404.208C324.598 404.208 409.391 319.497 409.391 215C409.391 110.503 324.597 25.7924 220 25.7924Z" fill="white"/>
<path d="M220 38.3703C243.869 38.3703 267.023 43.0399 288.818 52.2497C309.871 61.1456 328.779 73.8818 345.017 90.1038C361.255 106.326 374.003 125.215 382.908 146.248C392.126 168.023 396.8 191.154 396.8 215C396.8 238.846 392.126 261.977 382.908 283.751C374.003 304.784 361.255 323.674 345.017 339.896C328.779 356.118 309.871 368.854 288.818 377.75C267.023 386.96 243.869 391.629 220 391.629C196.131 391.629 172.978 386.96 151.182 377.75C130.129 368.854 111.221 356.118 94.9835 339.896C78.7459 323.674 65.9974 304.784 57.0929 283.751C47.8742 261.977 43.2001 238.846 43.2001 215C43.2001 191.154 47.8742 168.023 57.0929 146.248C65.9974 125.215 78.7459 106.326 94.9835 90.1038C111.221 73.8818 130.129 61.1456 151.182 52.2497C172.978 43.0399 196.131 38.3703 220 38.3703ZM220 36.2021C121.157 36.2021 41.0294 116.253 41.0294 215C41.0294 313.748 121.157 393.798 220 393.798C318.843 393.798 398.971 313.748 398.971 215C398.971 116.253 318.843 36.2021 220 36.2021Z" fill="white"/>
<path d="M254.926 247.598L253.182 246.538C251.822 249.788 249.923 251.338 249.923 251.338C245.427 255.248 241.205 255.002 234.291 253.775C233.954 253.715 233.639 253.652 233.332 253.585C233.615 253.143 233.898 252.653 234.175 252.113C235.095 250.319 235.811 248.082 235.999 246.098C236.221 243.757 236.264 241.78 236.264 241.78L236.699 225.937L236.818 206.495L236.822 177.486L237.352 177.367C248.946 174.314 254.928 159.89 254.928 159.89L253.184 158.83C251.824 162.079 249.925 163.629 249.925 163.629C245.43 167.54 241.207 167.293 234.294 166.067C232.295 165.713 230.871 165.24 229.254 164.748C227 164.059 225.725 163.629 225.725 163.629C218.297 161.192 214.976 160.87 214.976 160.87C211.211 160.384 208.97 160.38 207.678 160.561C206.554 160.719 206.018 160.87 206.018 160.87C200.425 162.341 196.192 165.769 193.002 169.202C187.227 175.418 185.073 182.467 185.073 182.467L186.713 183.462C187.171 182.404 187.647 181.454 188.141 180.573C189.414 178.299 190.836 176.546 192.131 175.356C194.059 173.586 195.651 172.969 195.651 172.969C196.598 172.477 197.791 172.155 199.135 172.017C202.124 171.708 206.943 172.347 210.844 173.144C212.934 173.571 214.756 174.05 215.901 174.374L197.607 187.954L199.139 189.567L201.491 187.855C201.491 187.855 202.995 188.499 202.871 201.166L202.822 236.908L202.249 237.299L197.598 240.682L199.135 242.299L201.106 240.866L209.705 248.157C209.705 248.157 209.694 248.159 209.692 248.161C208.851 248.157 208.188 248.198 207.678 248.269C206.554 248.426 206.018 248.578 206.018 248.578C200.425 250.048 196.192 253.477 193.002 256.909C187.227 263.125 185.073 270.174 185.073 270.174L186.713 271.169C187.171 270.111 187.647 269.162 188.141 268.28C189.414 266.007 190.836 264.254 192.131 263.064C194.059 261.294 195.651 260.676 195.651 260.676C196.598 260.184 197.791 259.862 199.135 259.724C202.124 259.415 206.943 260.055 210.844 260.851C214.386 261.577 217.17 262.455 217.17 262.455C226.651 265.262 232.075 267.564 240.233 264.044C249.723 259.951 254.926 247.597 254.926 247.597L254.926 247.598ZM209.72 248.16L220.007 239.77L217.658 237.654C215.514 235.512 215.591 232.779 215.591 232.779V177.277L218.384 175.133L219.739 175.562C219.739 175.562 220.975 175.902 222.698 176.346V242.218C222.762 246.728 222.371 249.178 222.138 250.225C217.219 248.796 214.974 248.576 214.974 248.576C212.772 248.291 211.105 248.174 209.83 248.161C209.766 248.159 209.72 248.159 209.72 248.159L209.72 248.16Z" fill="white"/>
<path d="M97.6205 312.403L93.5572 306.436L107.897 284.269L87.775 297.946L83.7434 292.025L117.785 268.888L121.848 274.854L107.509 297.021L127.63 283.345L131.662 289.265L97.6205 312.403Z" fill="white"/>
<path d="M129.59 310.758L139.944 320.009L135.166 325.346L124.812 316.096L118.293 323.378L128.648 332.628L123.833 338.007L108.136 323.983L135.581 293.324L151.278 307.347L146.463 312.726L136.109 303.476L129.59 310.758H129.59Z" fill="white"/>
<path d="M165.821 361.275L158.79 358.086L164.739 335.059L151.303 354.69L144.271 351.5L154.259 310.86L160.836 313.843L154.207 339.304L168.779 317.446L175.355 320.429L168.473 345.776L183.297 324.032L189.874 327.015L165.821 361.275Z" fill="white"/>
<path d="M198.437 361.542C201.188 361.927 203.4 360.555 203.731 358.191C204.232 354.617 198.419 352.459 194.221 349.182C191.229 346.914 188.641 342.964 189.334 338.017C190.281 331.255 196.485 327.022 203.143 327.953C209.911 328.9 214.643 335.166 213.696 341.928L206.597 340.936C206.825 338.109 204.948 335.492 202.141 335.1C199.335 334.708 197.271 335.82 196.886 338.569C196.455 341.647 201.349 343.957 205.27 346.803C208.672 349.353 212.116 353.198 211.338 358.75C210.406 365.402 204.203 369.635 197.434 368.689C190.776 367.758 186.044 361.491 186.984 354.784L194.082 355.777C193.807 358.541 195.685 361.158 198.436 361.542L198.437 361.542Z" fill="white"/>
<path d="M259.378 352.722C260.7 359.364 256.335 365.891 249.633 367.223C242.985 368.544 236.452 364.184 235.129 357.543L231.92 341.429C230.586 334.733 234.951 328.206 241.599 326.885C248.301 325.552 254.834 329.913 256.168 336.609L249.139 338.006C248.531 335.241 245.744 333.475 243.019 334.016C240.24 334.569 238.429 337.419 238.949 340.032L242.159 356.145C242.755 358.857 245.553 360.677 248.224 360.147C251.046 359.529 252.89 356.842 252.348 354.12L251.535 350.038L246.413 351.056L245.003 343.979L257.155 341.564L259.378 352.723V352.722Z" fill="white"/>
<path d="M291.472 339.262C294.342 345.336 291.689 352.725 285.509 355.639C279.43 358.507 272.033 355.857 269.164 349.783L256.735 323.48L263.217 320.423L275.646 346.726C277.095 349.664 279.988 350.325 282.45 349.164C284.989 347.906 286.153 344.778 284.991 342.319L272.563 316.016L279.044 312.959L291.473 339.262H291.472Z" fill="white"/>
<path d="M283.398 309.423L289.238 305.176L313.468 338.43L307.628 342.676L283.398 309.423Z" fill="white"/>
<path d="M338.494 315.084L323.762 330.196L294.266 301.497L299.306 296.328L323.627 319.99L333.319 310.049L338.494 315.084Z" fill="white"/>
<path d="M315.265 276.7C318.992 270.978 326.679 269.353 332.406 273.077L346.191 282.037C351.873 285.73 353.499 293.41 349.772 299.132L343.075 309.414L308.568 286.982L315.265 276.7ZM343.718 295.197C345.217 292.794 344.611 289.552 342.282 288.039L328.498 279.078C326.046 277.551 322.864 278.263 321.318 280.636L318.56 284.87L340.96 299.431L343.718 295.197Z" fill="white"/>
<path d="M105.861 110.987L110.872 105.79L140.524 134.326L135.513 139.522L105.861 110.987Z" fill="white"/>
<path d="M165.371 115.306L159.429 119.409L137.138 105.247L150.973 125.247L145.078 129.318L121.671 95.4832L127.613 91.3809L149.904 105.542L136.069 85.5426L141.965 81.4716L165.371 115.306H165.371Z" fill="white"/>
<path d="M188.25 93.6042C189.445 96.8912 189.115 100.376 187.628 103.278C189.981 104.55 191.936 106.676 192.922 109.388L186.29 111.794C185.441 109.621 183.676 108.668 181.663 108.984L180.794 109.359C174.475 111.65 167.357 108.327 165.063 102.014L159.281 86.1016C156.93 79.6325 160.256 72.521 166.576 70.2288C172.999 67.8992 180.117 71.2227 182.468 77.6919L188.25 93.6042ZM171.8 99.5703C172.971 102.63 175.79 103.555 178.349 102.628C180.993 101.609 182.443 98.6041 181.514 96.0474L175.731 80.135C174.712 77.4928 171.652 76.064 169.04 77.011C166.448 78.0102 165.07 81.0492 166.018 83.6576L171.8 99.5703Z" fill="white"/>
<path d="M218.701 89.7677C219.381 96.4493 214.416 102.533 207.617 103.223C200.929 103.902 194.839 98.9407 194.16 92.2594L191.217 63.3238L198.347 62.5996L201.29 91.5352C201.677 94.7876 204.184 96.3739 206.892 96.099C209.705 95.7577 211.847 93.1974 211.571 90.491L208.628 61.5554L215.759 60.8316L218.701 89.7677Z" fill="white"/>
<path d="M229.054 61.5541L236.25 62.1781L232.689 103.156L225.493 102.531L229.054 61.5541Z" fill="white"/>
<path d="M249.562 91.0248L245.503 105.396L238.551 103.437L249.731 63.8498L261.549 67.1807C268.18 69.0501 272.019 75.8992 270.163 82.4707L269.74 83.9663C268.443 88.5608 264.638 91.8141 260.191 92.6367L262.616 110.219L254.648 107.974L252.396 91.8236L249.562 91.0248ZM251.508 84.1337L256.375 85.5049C259.117 86.22 262.05 84.6246 262.789 82.0071L263.212 80.5115C263.943 77.7183 262.316 74.8948 259.588 74.126L254.722 72.7543L251.508 84.1337Z" fill="white"/>
<path d="M284.599 94.8141L296.652 101.71L293.09 107.923L281.038 101.027L276.178 109.503L288.23 116.4L284.64 122.661L266.369 112.206L286.83 76.5176L305.102 86.9728L301.512 93.2338L289.46 86.3371L284.599 94.8141Z" fill="white"/>
<path d="M304.9 120.37L294.481 131.075L289.302 126.044L318.004 96.5556L326.808 105.108C331.747 109.906 331.857 117.756 327.093 122.651L326.008 123.765C322.677 127.187 317.78 128.237 313.478 126.845L307.227 143.458L301.292 137.692L307.012 122.421L304.9 120.37V120.37ZM309.897 115.236L313.522 118.758C315.593 120.692 318.932 120.684 320.83 118.734L321.915 117.62C323.89 115.512 323.805 112.255 321.773 110.281L318.148 106.76L309.897 115.236Z" fill="white"/>
<path d="M220 125.098C232.15 125.098 243.935 127.475 255.027 132.162C265.743 136.69 275.367 143.173 283.632 151.43C291.897 159.687 298.386 169.302 302.918 180.007C307.61 191.089 309.989 202.863 309.989 215C309.989 227.138 307.61 238.912 302.918 249.993C298.386 260.699 291.897 270.313 283.632 278.571C275.367 286.828 265.743 293.31 255.027 297.838C243.934 302.526 232.149 304.903 220 304.903C207.851 304.903 196.066 302.526 184.973 297.838C174.258 293.31 164.634 286.828 156.369 278.571C148.103 270.313 141.615 260.699 137.082 249.993C132.39 238.911 130.011 227.138 130.011 215C130.011 202.863 132.39 191.089 137.082 180.007C141.615 169.302 148.103 159.687 156.369 151.43C164.634 143.173 174.258 136.69 184.973 132.162C196.066 127.475 207.851 125.098 220 125.098ZM220 122.93C169.102 122.93 127.841 164.151 127.841 215C127.841 265.849 169.102 307.071 220 307.071C270.899 307.071 312.16 265.849 312.16 215C312.16 164.151 270.899 122.93 220 122.93Z" fill="white"/>
<path d="M64.4104 224.064H54.8436V205.427H58.1164V220.794H64.4104V224.064Z" fill="white"/>
<path d="M78.0553 210.935V218.606C78.0553 221.649 75.5378 224.165 72.4411 224.165C69.3948 224.165 66.8777 221.649 66.8777 218.606V210.935C66.8777 207.817 69.3953 205.302 72.4411 205.302C75.5378 205.302 78.0553 207.817 78.0553 210.935ZM74.8081 218.606V210.935C74.7825 209.652 73.6999 208.571 72.4415 208.571C71.1827 208.597 70.1254 209.678 70.1254 210.935V218.606C70.1505 220.09 71.2079 220.92 72.4415 220.92C73.7255 220.895 74.8081 219.838 74.8081 218.606Z" fill="white"/>
<path d="M88.7299 210.935C88.7048 209.652 87.6474 208.571 86.3886 208.571C85.1298 208.597 84.0724 209.678 84.0724 210.935V218.606C84.0976 220.09 85.1549 220.92 86.3886 220.92C87.6725 220.895 88.7299 219.838 88.7299 218.606V216.72H92.0028V218.606C92.0028 221.649 89.4852 224.165 86.3886 224.165C83.3423 224.165 80.8251 221.649 80.8251 218.606V210.935C80.8251 207.817 83.3427 205.302 86.3886 205.302C89.4852 205.302 92.0028 207.817 92.0028 210.935V212.771H88.7299V210.935Z" fill="white"/>
<path d="M98.045 219.411L96.9125 224.064H93.6397L98.1965 205.427H102.627L107.184 224.064H103.911L102.779 219.411H98.045ZM100.412 209.753L98.8003 216.393H102.048L100.412 209.753Z" fill="white"/>
<path d="M119.142 224.064H109.576V205.427H112.848V220.794H119.142V224.064Z" fill="white"/>
<path d="M327.738 213.148C328.795 213.123 329.928 212.243 329.928 211.036C329.928 209.678 328.946 208.696 327.586 208.696C326.328 208.696 325.472 209.879 325.472 211.036H321.947C321.947 207.917 324.465 205.402 327.586 205.402C330.683 205.402 333.201 207.917 333.201 211.036C333.201 212.469 332.672 213.802 331.766 214.808C332.672 215.764 333.201 217.097 333.201 218.556C333.201 221.649 330.683 224.165 327.586 224.165C324.465 224.165 321.947 221.649 321.947 218.556H325.22C325.22 219.713 326.278 220.87 327.586 220.87C328.971 220.87 329.928 219.889 329.928 218.556C329.928 217.323 328.77 216.418 327.738 216.418H326.328V213.148H327.738Z" fill="white"/>
<path d="M336.222 211.036C336.222 207.942 338.74 205.402 341.861 205.402C344.958 205.402 347.475 207.942 347.475 211.036C347.475 212.494 346.947 213.802 346.04 214.808C346.947 215.764 347.475 217.097 347.475 218.556C347.475 221.649 344.958 224.165 341.861 224.165C338.74 224.165 336.222 221.649 336.222 218.556C336.222 217.097 336.751 215.764 337.632 214.808C336.751 213.802 336.222 212.494 336.222 211.036ZM339.495 211.036C339.495 212.319 340.553 213.375 341.861 213.375C343.12 213.375 344.203 212.293 344.203 211.036C344.203 209.803 343.095 208.722 341.861 208.722C340.602 208.722 339.495 209.778 339.495 211.036ZM339.495 218.556C339.495 219.838 340.553 220.87 341.861 220.87C343.12 220.87 344.203 219.789 344.203 218.556C344.203 217.323 343.145 216.192 341.861 216.192C340.602 216.192 339.495 217.248 339.495 218.556Z" fill="white"/>
<path d="M361.549 210.935V218.606C361.549 221.649 359.031 224.165 355.935 224.165C352.888 224.165 350.371 221.649 350.371 218.606V210.935C350.371 207.817 352.889 205.302 355.935 205.302C359.031 205.302 361.549 207.817 361.549 210.935ZM358.301 218.606V210.935C358.276 209.652 357.193 208.571 355.935 208.571C354.676 208.597 353.618 209.678 353.618 210.935V218.606C353.644 220.09 354.701 220.92 355.935 220.92C357.219 220.895 358.301 219.838 358.301 218.606Z" fill="white"/>
<path d="M363.941 220.794H367.893V208.697H363.941V205.427H371.166V220.795H375.118V224.064H363.941V220.794Z" fill="white"/>
<path d="M387.681 210.935V218.606C387.681 221.649 385.163 224.165 382.067 224.165C379.02 224.165 376.503 221.649 376.503 218.606V210.935C376.503 207.817 379.021 205.302 382.067 205.302C385.163 205.302 387.681 207.817 387.681 210.935ZM384.433 218.606V210.935C384.408 209.652 383.325 208.571 382.067 208.571C380.808 208.597 379.751 209.678 379.751 210.935V218.606C379.776 220.09 380.833 220.92 382.067 220.92C383.351 220.895 384.433 219.838 384.433 218.606Z" fill="white"/>
</svg>
