<svg width="100" height="100" viewBox="0 0 100 100" fill="none" xmlns="http://www.w3.org/2000/svg">
<rect width="100" height="100" fill="#E11B22"/>
<path d="M10 88.6479V11.3521H21.767C24.0404 11.3521 25.9455 12.3662 27.4824 14.3944C29.0194 16.3474 30.172 19.0892 30.9405 22.6197C31.709 26.0751 32.0932 30.0563 32.0932 34.5634C32.0932 39.3709 31.6609 43.615 30.7964 47.2958C29.9319 50.9014 28.7312 53.7183 27.1943 55.7465C25.6573 57.6995 23.8483 58.6761 21.767 58.6761H16.1477V88.6479H10ZM16.1477 45.9437H21.1427C22.6475 45.9437 23.7842 44.9296 24.5527 42.9014C25.3532 40.8732 25.7534 38.0939 25.7534 34.5634C25.7534 31.4084 25.3532 28.892 24.5527 27.0141C23.7522 25.1361 22.6155 24.1972 21.1427 24.1972H16.1477V45.9437Z" fill="white"/>
<path d="M36.2657 88.6479V11.3521H41.6929L51.875 53.9437C52.0671 54.5446 52.2752 55.446 52.4994 56.6479C52.7235 57.7746 52.9156 58.8263 53.0757 59.8028C53.2678 60.7042 53.3639 61.1549 53.3639 61.1549L53.508 60.8169C53.508 60.8169 53.508 60.3662 53.508 59.4648C53.508 58.5634 53.492 57.5869 53.4599 56.5352C53.4599 55.4836 53.4599 54.77 53.4599 54.3944V11.3521H58.9352V88.6479H53.4599L43.2779 46.0563C43.1498 45.5305 42.9577 44.7042 42.7015 43.5775C42.4774 42.3756 42.2693 41.2864 42.0771 40.3099C41.885 39.3333 41.789 38.8451 41.789 38.8451L41.5969 39.1831C41.5969 39.1831 41.5969 39.5962 41.5969 40.4225C41.6289 41.1737 41.6449 42.0751 41.6449 43.1268C41.6769 44.1033 41.6929 44.9296 41.6929 45.6056V88.6479H36.2657Z" fill="white"/>
<path d="M76.1677 90C72.1333 90 68.9955 86.77 66.7541 80.3099C64.5448 73.8498 63.4401 63.7465 63.4401 50C63.4401 36.3286 64.6569 26.2629 67.0903 19.8028C69.5238 13.2676 72.9658 10 77.4165 10C79.6258 10 81.691 11.0892 83.6122 13.2676C85.5333 15.446 87.0702 18.6385 88.2229 22.8451C89.4076 27.0516 90 32.2347 90 38.3944H83.7082C83.7082 33.1361 83.0679 29.1549 81.7871 26.4507C80.5384 23.7465 79.0174 22.3944 77.2244 22.3944C74.6628 22.3944 72.7737 24.6103 71.557 29.0423C70.3723 33.3991 69.7799 39.446 69.7799 47.1831V52.8169C69.7799 60.7042 70.3883 66.8263 71.605 71.1831C72.8217 75.4648 74.7109 77.6056 77.2724 77.6056C79.1615 77.6056 80.6984 75.9155 81.8832 72.5352C83.0999 69.1549 83.7082 64.6479 83.7082 59.0141V53.6056L86.3018 59.0141H76.3118V46.6197H90V88.6479H86.0136L84.957 80.0845C83.9004 83.3146 82.6036 85.7934 81.0667 87.5211C79.5297 89.1737 77.8968 90 76.1677 90Z" fill="white"/>
</svg>
